# xmcd
#
# Track frame offsets:
#	150
#	16617
#	29313
#	44733
#	59133
#	72773
#	87615
#	104140
#	120263
#	134205
#	151193
#	171663
#
# Disc length: 2471 seconds
#
# Revision: 0
# Processed by: cddbd v1.5.2PL0 Copyright (c) Steve Scherf et al.
# Submitted via: dBpowerAMP V4.0
#
DISCID=b109a50c
DTITLE=Adriano and Marcionei - Minha Motoca
DYEAR=2008
DGENRE=sertanejo
TTITLE0=desculpa amor
TTITLE1=fogo na capoeira
TTITLE2=vai chorar
TTITLE3=minha motoca
TTITLE4=refem do amor
TTITLE5=saudade chama
TTITLE6=tentando te esquecer
TTITLE7=foi ela
TTITLE8=peao folgado
TTITLE9=fim de tarde
TTITLE10=porta aberta
TTITLE11=na contramão
EXTD=
EXTT0=
EXTT1=
EXTT2=
EXTT3=
EXTT4=
EXTT5=
EXTT6=
EXTT7=
EXTT8=
EXTT9=
EXTT10=
EXTT11=
PLAYORDER=
